<?xml version="1.0" standalone="no"?>
<!DOCTYPE svg PUBLIC "-//W3C//DTD SVG 20010904//EN"
 "http://www.w3.org/TR/2001/REC-SVG-20010904/DTD/svg10.dtd">
<svg version="1.0" xmlns="http://www.w3.org/2000/svg"
 width="1058.000000pt" height="856.000000pt" viewBox="0 0 1058.000000 856.000000"
 preserveAspectRatio="xMidYMid meet">
<metadata>
Created by potrace 1.16, written by Peter Selinger 2001-2019
</metadata>
<g transform="translate(0.000000,856.000000) scale(0.100000,-0.100000)"
fill="#000000" stroke="none">
<path d="M0 4280 l0 -4280 5290 0 5290 0 0 4280 0 4280 -5290 0 -5290 0 0
-4280z m7320 1190 l0 -2240 -1965 0 -1965 0 0 2240 0 2240 1965 0 1965 0 0
-2240z m-4446 -2850 c69 -26 130 -85 164 -158 26 -54 27 -65 27 -212 l0 -155
-33 -67 c-33 -67 -71 -106 -142 -144 -30 -16 -62 -19 -215 -22 -164 -3 -185
-2 -237 18 -71 26 -132 84 -166 158 -26 54 -27 65 -27 212 0 147 1 158 27 212
33 71 95 132 161 157 44 17 77 20 219 20 145 1 175 -2 222 -19z m-734 -54 l0
-65 -265 -3 c-200 -2 -267 -6 -277 -16 -10 -9 -14 -64 -16 -205 -4 -226 -1
-250 34 -265 17 -8 107 -12 274 -12 l250 0 0 -65 0 -65 -274 0 c-170 0 -285 4
-303 11 -34 13 -80 55 -99 91 -17 34 -20 500 -3 545 14 37 57 82 94 99 23 10
98 13 308 14 l277 0 0 -64z m1210 -251 l0 -315 280 0 280 0 0 -65 0 -65 -334
0 c-335 0 -335 0 -350 22 -14 19 -16 73 -16 380 l0 358 70 0 70 0 0 -315z
m810 0 l0 -315 280 0 280 0 0 -65 0 -65 -332 0 c-294 0 -333 2 -350 17 -17 15
-18 40 -18 380 l0 363 70 0 70 0 0 -315z m1400 295 c19 -19 20 -33 20 -380 l0
-360 -70 0 -70 0 0 95 0 95 -245 0 -245 0 0 -95 0 -95 -70 0 -70 0 0 198 c0
109 5 225 11 257 26 140 112 241 242 286 44 15 87 18 265 19 199 0 213 -1 232
-20z m818 -8 c49 -35 65 -76 65 -159 -1 -53 -6 -84 -22 -117 l-22 -45 40 -40
c97 -97 92 -282 -8 -348 -33 -23 -39 -23 -342 -23 -296 0 -310 1 -329 20 -19
19 -20 33 -20 360 0 329 1 341 20 360 20 20 30 21 303 18 277 -3 283 -3 315
-26z m392 -127 l0 -155 245 0 245 0 0 155 0 155 70 0 70 0 0 -380 0 -380 -70
0 -70 0 0 155 0 155 -245 0 -245 0 0 -155 0 -155 -70 0 -70 0 0 380 0 380 70
0 70 0 0 -155z m922 -84 l3 -239 30 -44 c21 -30 48 -52 90 -73 59 -29 63 -30
210 -30 l150 0 3 313 2 312 65 0 65 0 0 -362 c0 -322 -2 -363 -17 -380 -15
-16 -35 -18 -223 -18 -231 0 -277 8 -366 65 -53 34 -97 89 -130 160 -16 34
-19 75 -22 288 l-4 247 71 0 70 0 3 -239z m1409 216 c18 -12 44 -38 57 -57 21
-31 23 -44 20 -110 -2 -50 -10 -89 -24 -117 l-21 -42 38 -37 c55 -53 72 -105
68 -201 -3 -61 -9 -85 -26 -109 -44 -62 -59 -64 -394 -64 -267 0 -305 2 -321
17 -17 15 -18 40 -18 361 0 307 2 347 17 364 15 17 37 18 293 18 272 0 278 0
311 -23z m-4171 -1297 c0 -127 -2 -150 -15 -150 -8 0 -15 5 -15 10 0 6 -13 4
-30 -5 -46 -24 -78 -19 -116 19 -29 29 -34 41 -34 79 0 64 40 107 101 107 25
0 50 -7 61 -17 17 -15 18 -14 18 45 0 48 3 62 15 62 13 0 15 -23 15 -150z
m1720 0 c0 -127 -2 -150 -15 -150 -8 0 -15 5 -15 10 0 6 -13 4 -30 -5 -78 -40
-150 9 -150 104 0 58 43 101 101 101 25 0 50 -7 61 -17 17 -15 18 -14 18 45 0
48 3 62 15 62 13 0 15 -23 15 -150z m2310 88 c0 -59 1 -60 18 -45 21 19 73 22
102 7 26 -14 40 -63 40 -136 0 -48 -3 -64 -14 -64 -10 0 -15 19 -18 75 -4 83
-18 108 -62 108 -50 0 -66 -28 -66 -110 0 -58 -3 -73 -15 -73 -13 0 -15 23
-15 150 0 127 2 150 15 150 12 0 15 -14 15 -62z m-7664 17 c13 -8 28 -24 34
-35 9 -16 8 -20 -6 -20 -8 0 -23 9 -32 20 -39 47 -126 40 -166 -13 -26 -35
-27 -101 -2 -139 35 -54 127 -60 165 -11 11 13 28 23 37 21 14 -3 13 -8 -10
-35 -71 -85 -208 -57 -236 49 -39 141 95 243 216 163z m2714 -40 c28 -36 53
-65 54 -65 1 0 24 29 50 65 30 41 55 65 67 65 18 0 19 -9 19 -140 0 -116 -2
-140 -15 -140 -12 0 -15 22 -17 115 l-3 116 -49 -65 c-55 -74 -53 -74 -113 5
-20 27 -41 49 -45 49 -4 0 -8 -49 -8 -110 0 -91 -3 -110 -15 -110 -13 0 -15
22 -15 140 0 131 1 140 19 140 12 0 40 -26 71 -65z m1754 44 c30 -24 34 -63
10 -98 -15 -21 -15 -23 5 -37 15 -11 21 -26 21 -54 0 -58 -23 -70 -137 -70
l-93 0 0 140 0 140 84 0 c69 0 88 -4 110 -21z m-4177 -64 c46 -33 52 -118 12
-169 -38 -49 -129 -43 -164 11 -30 46 -18 128 24 160 22 17 102 16 128 -2z
m163 -2 c0 -15 1 -15 18 0 21 19 73 22 102 7 26 -14 40 -63 40 -136 0 -48 -3
-64 -14 -64 -10 0 -15 19 -18 75 -4 83 -18 108 -62 108 -50 0 -66 -28 -66
-110 0 -58 -3 -73 -15 -73 -12 0 -15 18 -15 105 0 87 3 105 15 105 8 0 15 -7
15 -17z m290 0 c0 -15 1 -15 18 0 21 19 73 22 102 7 26 -14 40 -63 40 -136 0
-50 -3 -64 -15 -64 -12 0 -15 14 -15 69 0 80 -19 114 -63 114 -51 0 -67 -27
-67 -110 0 -58 -3 -73 -15 -73 -12 0 -15 18 -15 105 0 87 3 105 15 105 8 0 15
-7 15 -17z m412 6 c20 -11 48 -65 48 -94 0 -12 -16 -15 -90 -15 -99 0 -113
-11 -64 -49 34 -26 64 -27 97 -1 45 36 65 21 24 -18 -47 -44 -128 -37 -162 14
-25 38 -20 107 11 143 22 26 33 31 71 31 24 0 53 -5 65 -11z m301 -21 c40 -40
20 -51 -25 -13 -23 20 -38 25 -57 20 -68 -16 -89 -97 -37 -141 33 -29 69 -31
97 -3 11 11 28 19 37 17 27 -6 -29 -55 -71 -63 -48 -9 -88 12 -111 58 -22 46
-16 94 19 131 19 21 33 26 70 26 39 0 52 -5 78 -32z m467 22 c0 -7 6 -7 19 0
36 19 86 12 111 -15 19 -21 24 -39 28 -105 4 -76 4 -80 -16 -80 -20 0 -21 6
-24 82 -3 79 -4 83 -30 96 -22 10 -32 10 -50 1 -34 -18 -38 -28 -38 -106 0
-58 -3 -73 -15 -73 -12 0 -15 18 -15 105 0 87 3 105 15 105 8 0 15 -5 15 -10z
m408 -6 c20 -14 22 -14 22 0 0 9 7 16 15 16 12 0 15 -19 15 -109 0 -162 -16
-190 -107 -191 -40 0 -58 5 -73 20 -40 40 -18 54 29 19 21 -16 36 -19 59 -14
37 8 47 20 57 64 7 34 7 34 -16 17 -29 -20 -98 -21 -126 -1 -27 19 -46 76 -38
114 11 50 48 81 97 81 24 0 54 -7 66 -16z m842 -1 c0 -15 1 -15 18 0 11 10 35
17 60 17 63 0 82 -31 82 -131 0 -64 -3 -79 -15 -79 -12 0 -15 15 -15 73 0 78
-4 88 -37 106 -30 15 -71 -1 -83 -34 -6 -15 -10 -53 -10 -86 0 -46 -3 -59 -15
-59 -12 0 -15 18 -15 105 0 87 3 105 15 105 8 0 15 -7 15 -17z m702 0 c19 -17
24 -43 8 -43 -5 0 -19 9 -30 20 -33 33 -96 22 -88 -16 2 -12 19 -23 53 -32 59
-17 85 -37 85 -67 0 -46 -65 -75 -125 -55 -30 10 -55 34 -55 54 0 13 28 4 45
-14 32 -36 116 -18 103 21 -2 7 -33 22 -69 33 -61 20 -64 23 -67 56 -3 24 2
38 14 47 26 19 104 16 126 -4z m750 -57 c4 -82 23 -116 65 -116 45 0 63 32 63
115 0 60 3 75 15 75 12 0 15 -18 15 -105 0 -87 -3 -105 -15 -105 -8 0 -15 5
-15 11 0 5 -10 3 -22 -5 -46 -32 -101 -15 -124 39 -19 46 -19 165 0 165 10 0
15 -19 18 -74z m998 57 c0 -15 1 -15 18 0 21 19 73 22 102 7 26 -14 40 -63 40
-136 0 -48 -3 -64 -14 -64 -10 0 -15 19 -18 75 -4 83 -18 108 -62 108 -50 0
-66 -28 -66 -110 0 -58 -3 -73 -15 -73 -12 0 -15 18 -15 105 0 87 3 105 15
105 8 0 15 -7 15 -17z m412 0 c17 -15 18 -15 18 0 0 10 7 17 16 17 14 0 15
-17 12 -131 -3 -123 -4 -132 -27 -150 -33 -27 -110 -26 -145 2 -14 11 -26 25
-26 30 0 14 22 11 42 -8 11 -9 35 -17 55 -17 41 0 73 31 73 72 0 24 -1 24 -18
9 -12 -11 -36 -17 -66 -17 -54 0 -91 30 -98 80 -6 37 14 97 39 115 26 20 102
19 125 -2z m689 4 c26 -20 41 -57 41 -98 -2 -131 -179 -147 -207 -19 -8 38 11
96 38 115 26 18 106 19 128 2z m280 3 c13 -7 19 -7 19 0 0 5 7 10 15 10 13 0
15 -21 15 -129 0 -128 0 -130 -26 -150 -48 -38 -164 -20 -164 25 0 20 17 18
48 -6 45 -36 112 -8 112 47 0 20 -3 22 -19 13 -29 -15 -93 -12 -118 5 -33 23
-48 83 -33 129 6 20 21 43 33 51 25 17 89 20 118 5z m319 -10 c12 -12 25 -32
30 -46 20 -52 17 -54 -80 -54 -99 0 -113 -11 -64 -49 34 -26 64 -27 97 -1 46
36 65 21 23 -19 -56 -53 -155 -28 -175 43 -12 44 2 98 31 126 30 28 110 28
138 0z m752 9 c20 -11 48 -65 48 -94 0 -12 -16 -15 -90 -15 -99 0 -113 -11
-64 -49 34 -26 64 -27 97 -1 46 36 65 21 23 -19 -56 -53 -155 -28 -175 43 -12
44 2 98 31 126 24 22 95 27 130 9z"/>
<path d="M3400 7055 l0 -645 83 0 c322 -1 742 -97 1075 -248 267 -119 496
-269 747 -485 l41 -35 44 39 c73 64 250 202 316 247 180 121 448 255 654 327
259 90 611 154 848 155 l82 0 0 -1200 0 -1200 -88 0 c-277 0 -681 -87 -985
-211 -278 -115 -594 -311 -792 -493 -27 -25 -53 -46 -57 -46 -5 0 -8 -4 -8
-10 0 -7 330 -10 970 -10 l970 0 0 2230 0 2230 -1950 0 -1950 0 0 -645z m2105
620 c229 -60 409 -234 480 -465 26 -87 31 -232 11 -324 -66 -293 -316 -506
-616 -523 -253 -14 -482 111 -617 337 -74 123 -102 322 -68 474 41 186 177
360 345 444 47 23 110 48 140 56 75 20 251 20 325 1z"/>
<path d="M5192 7620 c-111 -29 -187 -74 -278 -165 -154 -152 -212 -343 -169
-550 38 -181 165 -347 326 -423 107 -51 160 -63 273 -63 281 1 510 173 592
447 13 41 18 90 18 164 -1 90 -5 118 -31 190 -37 108 -86 183 -171 260 -150
138 -364 191 -560 140z"/>
<path d="M3450 5217 l0 -1144 46 -7 c26 -3 70 -6 98 -6 67 0 263 -26 385 -51
343 -70 721 -225 1001 -412 100 -67 253 -184 315 -239 l50 -45 65 57 c358 313
826 542 1310 640 128 26 207 36 458 56 l62 6 0 1144 0 1145 -87 -6 c-663 -47
-1234 -282 -1713 -704 -54 -48 -96 -78 -103 -74 -7 4 -48 39 -92 78 -418 370
-950 613 -1489 680 -61 7 -155 16 -208 20 l-98 6 0 -1144z"/>
<path d="M3400 3625 l0 -385 965 0 c531 0 965 2 965 5 0 21 -224 198 -380 300
-381 249 -789 396 -1246 450 -71 8 -168 15 -216 15 l-88 0 0 -385z"/>
<path d="M2496 2493 c-33 -12 -60 -31 -80 -56 -29 -37 -31 -43 -34 -148 -5
-140 3 -191 35 -229 49 -59 73 -65 238 -65 165 0 189 6 238 65 32 38 40 89 36
228 -4 101 -6 112 -32 145 -46 61 -75 71 -222 74 -105 3 -140 0 -179 -14z"/>
<path d="M5150 2490 c-127 -26 -200 -116 -200 -246 l0 -54 245 0 245 0 0 155
0 155 -127 -1 c-71 -1 -144 -5 -163 -9z"/>
<path d="M5880 2250 l0 -250 229 0 c126 0 236 3 245 6 21 8 21 75 1 114 -27
53 -56 60 -245 60 l-170 0 0 70 0 70 135 0 c159 0 193 10 218 63 23 48 22 94
-2 107 -12 6 -100 10 -215 10 l-196 0 0 -250z"/>
<path d="M8620 2250 l0 -250 235 0 c227 0 235 1 245 21 15 28 4 91 -22 118
-33 36 -61 41 -239 41 l-169 0 0 69 0 70 156 3 156 3 29 33 c24 26 29 41 29
81 0 35 -4 51 -16 55 -9 3 -103 6 -210 6 l-194 0 0 -250z"/>
<path d="M4799 1339 c-51 -19 -65 -94 -24 -134 31 -32 69 -32 100 0 62 61 4
163 -76 134z"/>
<path d="M6521 1338 c-34 -12 -50 -37 -51 -76 0 -40 38 -82 75 -82 55 0 94 76
65 130 -13 25 -59 39 -89 28z"/>
<path d="M5605 1277 c-4 -8 -5 -32 -3 -53 l3 -39 55 -3 c67 -3 104 14 108 49
4 37 -19 51 -93 56 -52 5 -66 3 -70 -10z"/>
<path d="M1493 1340 c-47 -19 -59 -101 -20 -138 39 -37 88 -28 113 20 35 67
-26 144 -93 118z"/>
<path d="M3540 1337 c-49 -25 -61 -95 -22 -130 32 -29 67 -30 98 -4 68 59 3
174 -76 134z"/>
<path d="M7243 1340 c-60 -24 -57 -128 4 -151 48 -18 103 23 103 76 0 30 -24
65 -53 75 -16 5 -30 10 -31 9 -1 0 -11 -4 -23 -9z"/>
<path d="M7930 1337 c-52 -26 -62 -95 -20 -137 46 -46 120 -7 120 62 0 61 -51
100 -100 75z"/>
<path d="M8220 1337 c-49 -25 -61 -95 -22 -130 53 -48 124 -14 124 57 0 61
-52 98 -102 73z"/>
</g>
</svg>
